<?xml version="1.0" encoding="UTF-8"?>
<svg width="24px" height="24px" viewBox="0 0 24 24" version="1.1" xmlns="http://www.w3.org/2000/svg">
    <g stroke="none" stroke-width="1" fill="none" fill-rule="evenodd">
        <path d="M13.2942857,21.1428571 L13.2942857,18.9857143 C16.0971429,18.72 18.72,16.0971429 18.9857143,13.2942857 L21.1428571,13.2942857 C20.8514286,17.3485714 17.3485714,20.8514286 13.2942857,21.1428571 Z M13.2942857,16.8285714 L13.2942857,13.2942857 L16.8285714,13.2942857 C16.5628571,15.12 15.12,16.5628571 13.2942857,16.8285714 Z M2.85714286,13.2942857 L5.01428571,13.2942857 C5.28,16.0971429 7.90285714,18.72 10.7057143,18.9857143 L10.7057143,21.1428571 C6.65142857,20.8514286 3.14857143,17.3485714 2.85714286,13.2942857 Z M7.17142857,13.2942857 L10.7057143,13.2942857 L10.7057143,16.8285714 C8.88,16.5628571 7.43714286,15.12 7.17142857,13.2942857 Z M10.7057143,2.85714286 L10.7057143,5.01428571 C7.90285714,5.28 5.28,7.90285714 5.01428571,10.7057143 L2.85714286,10.7057143 C3.14857143,6.65142857 6.65142857,3.14857143 10.7057143,2.85714286 Z M10.7057143,7.17142857 L10.7057143,10.7057143 L7.17142857,10.7057143 C7.43714286,8.88 8.88,7.43714286 10.7057143,7.17142857 Z M21.1428571,10.7057143 L18.9857143,10.7057143 C18.72,7.90285714 16.0971429,5.28 13.2942857,5.01428571 L13.2942857,2.85714286 C17.3485714,3.14857143 20.8514286,6.65142857 21.1428571,10.7057143 Z M16.8285714,10.7057143 L13.2942857,10.7057143 L13.2942857,7.17142857 C15.12,7.43714286 16.5628571,8.88 16.8285714,10.7057143 Z" fill="#6366F1" fill-rule="nonzero"></path>
    </g>
</svg>
